<?xml version="1.0" encoding="UTF-8"?>
<svg xmlns="http://www.w3.org/2000/svg" width="1012" height="1228" font-family="Arial, 'Microsoft YaHei', sans-serif">
<defs>
<filter id="drop_shadow" x="-15%" y="-15%" width="130%" height="130%">
  <feDropShadow dx="3" dy="4" stdDeviation="4" flood-color="#00000028"/>
</filter>
<filter id="soft_shadow" x="-10%" y="-10%" width="120%" height="120%">
  <feDropShadow dx="1" dy="2" stdDeviation="2" flood-color="#00000020"/>
</filter>
<linearGradient id="fixed_grad" x1="0%" y1="0%" x2="0%" y2="100%">
  <stop offset="0%"   stop-color="#EBF8FF"/>
  <stop offset="100%" stop-color="#63B3ED" stop-opacity="0.5"/>
</linearGradient>
<linearGradient id="room_grad" x1="0%" y1="0%" x2="100%" y2="100%">
  <stop offset="0%"   stop-color="#F7FAFC"/>
  <stop offset="100%" stop-color="#EDF2F7"/>
</linearGradient>
<radialGradient id="fan_grad_0" cx="0%" cy="50%" r="100%" gradientTransform="rotate(0)">
  <stop offset="0%"   stop-color="#C53030" stop-opacity="0.30"/>
  <stop offset="100%" stop-color="#C53030" stop-opacity="0.03"/>
</radialGradient>
<radialGradient id="fan_grad_1" cx="0%" cy="50%" r="100%" gradientTransform="rotate(0)">
  <stop offset="0%"   stop-color="#2B6CB0" stop-opacity="0.30"/>
  <stop offset="100%" stop-color="#2B6CB0" stop-opacity="0.03"/>
</radialGradient>
<radialGradient id="fan_grad_2" cx="0%" cy="50%" r="100%" gradientTransform="rotate(0)">
  <stop offset="0%"   stop-color="#276749" stop-opacity="0.30"/>
  <stop offset="100%" stop-color="#276749" stop-opacity="0.03"/>
</radialGradient>
<radialGradient id="fan_grad_3" cx="0%" cy="50%" r="100%" gradientTransform="rotate(0)">
  <stop offset="0%"   stop-color="#6B46C1" stop-opacity="0.30"/>
  <stop offset="100%" stop-color="#6B46C1" stop-opacity="0.03"/>
</radialGradient>
<radialGradient id="fan_grad_4" cx="0%" cy="50%" r="100%" gradientTransform="rotate(0)">
  <stop offset="0%"   stop-color="#C05621" stop-opacity="0.30"/>
  <stop offset="100%" stop-color="#C05621" stop-opacity="0.03"/>
</radialGradient>
<clipPath id="room_clip">
  <rect x="72" y="58" width="720" height="1080"/>
</clipPath>
<symbol id="sym_dome" viewBox="-12 -12 24 24" overflow="visible">
  <!-- 外环：currentColor -->
  <circle cx="0" cy="0" r="11" fill="none" stroke="currentColor" stroke-width="2.2"/>
  <!-- 灰色穹顶外壳 -->
  <circle cx="0" cy="0" r="8.5" fill="#4A5568"/>
  <!-- 深色镜头 -->
  <circle cx="0" cy="0" r="5.2" fill="#1A365D"/>
  <!-- 底座 -->
  <rect x="-7" y="5.5" width="14" height="3" rx="1.5" fill="#2D3748"/>
  <!-- 镜头高光 -->
  <circle cx="-1.8" cy="-1.8" r="1.6" fill="white" opacity="0.55"/>
</symbol>
<symbol id="sym_bullet" viewBox="-12 -12 24 24" overflow="visible">
  <!-- 机身 -->
  <rect x="-11" y="-4.5" width="18" height="9" rx="2.5" fill="#4A5568"/>
  <!-- 镜头端盖 -->
  <rect x="5.5" y="-3.5" width="6.5" height="7" rx="2" fill="#2D3748"/>
  <!-- 镜头玻璃 -->
  <circle cx="9" cy="0" r="2.8" fill="#1A365D"/>
  <!-- 安装支架 -->
  <rect x="-3" y="4.5" width="6" height="4.5" rx="1" fill="#2D3748"/>
  <!-- 机身描边：currentColor -->
  <rect x="-11" y="-4.5" width="18" height="9" rx="2.5" fill="none"
        stroke="currentColor" stroke-width="1.8"/>
  <!-- 镜头高光 -->
  <circle cx="8" cy="-1.2" r="0.9" fill="white" opacity="0.6"/>
</symbol>
</defs>
<g id="background_layer">
<rect width="1012" height="1228" fill="white"/>
<line x1="72.0" y1="58" x2="72.0" y2="1138" stroke="#E2E8F0" stroke-width="0.5"/>
<line x1="132.0" y1="58" x2="132.0" y2="1138" stroke="#E2E8F0" stroke-width="0.5"/>
<line x1="192.0" y1="58" x2="192.0" y2="1138" stroke="#E2E8F0" stroke-width="0.5"/>
<line x1="252.0" y1="58" x2="252.0" y2="1138" stroke="#E2E8F0" stroke-width="0.5"/>
<line x1="312.0" y1="58" x2="312.0" y2="1138" stroke="#E2E8F0" stroke-width="0.5"/>
<line x1="372.0" y1="58" x2="372.0" y2="1138" stroke="#E2E8F0" stroke-width="0.5"/>
<line x1="432.0" y1="58" x2="432.0" y2="1138" stroke="#E2E8F0" stroke-width="0.5"/>
<line x1="492.0" y1="58" x2="492.0" y2="1138" stroke="#E2E8F0" stroke-width="0.5"/>
<line x1="552.0" y1="58" x2="552.0" y2="1138" stroke="#E2E8F0" stroke-width="0.5"/>
<line x1="612.0" y1="58" x2="612.0" y2="1138" stroke="#E2E8F0" stroke-width="0.5"/>
<line x1="672.0" y1="58" x2="672.0" y2="1138" stroke="#E2E8F0" stroke-width="0.5"/>
<line x1="732.0" y1="58" x2="732.0" y2="1138" stroke="#E2E8F0" stroke-width="0.5"/>
<line x1="792.0" y1="58" x2="792.0" y2="1138" stroke="#E2E8F0" stroke-width="0.5"/>
<line x1="72" y1="58.0" x2="792" y2="58.0" stroke="#E2E8F0" stroke-width="0.5"/>
<line x1="72" y1="118.0" x2="792" y2="118.0" stroke="#E2E8F0" stroke-width="0.5"/>
<line x1="72" y1="178.0" x2="792" y2="178.0" stroke="#E2E8F0" stroke-width="0.5"/>
<line x1="72" y1="238.0" x2="792" y2="238.0" stroke="#E2E8F0" stroke-width="0.5"/>
<line x1="72" y1="298.0" x2="792" y2="298.0" stroke="#E2E8F0" stroke-width="0.5"/>
<line x1="72" y1="358.0" x2="792" y2="358.0" stroke="#E2E8F0" stroke-width="0.5"/>
<line x1="72" y1="418.0" x2="792" y2="418.0" stroke="#E2E8F0" stroke-width="0.5"/>
<line x1="72" y1="478.0" x2="792" y2="478.0" stroke="#E2E8F0" stroke-width="0.5"/>
<line x1="72" y1="538.0" x2="792" y2="538.0" stroke="#E2E8F0" stroke-width="0.5"/>
<line x1="72" y1="598.0" x2="792" y2="598.0" stroke="#E2E8F0" stroke-width="0.5"/>
<line x1="72" y1="658.0" x2="792" y2="658.0" stroke="#E2E8F0" stroke-width="0.5"/>
<line x1="72" y1="718.0" x2="792" y2="718.0" stroke="#E2E8F0" stroke-width="0.5"/>
<line x1="72" y1="778.0" x2="792" y2="778.0" stroke="#E2E8F0" stroke-width="0.5"/>
<line x1="72" y1="838.0" x2="792" y2="838.0" stroke="#E2E8F0" stroke-width="0.5"/>
<line x1="72" y1="898.0" x2="792" y2="898.0" stroke="#E2E8F0" stroke-width="0.5"/>
<line x1="72" y1="958.0" x2="792" y2="958.0" stroke="#E2E8F0" stroke-width="0.5"/>
<line x1="72" y1="1018.0" x2="792" y2="1018.0" stroke="#E2E8F0" stroke-width="0.5"/>
<line x1="72" y1="1078.0" x2="792" y2="1078.0" stroke="#E2E8F0" stroke-width="0.5"/>
<line x1="72" y1="1138.0" x2="792" y2="1138.0" stroke="#E2E8F0" stroke-width="0.5"/>
</g>
<g id="architecture_layer">
<rect x="72" y="58" width="720" height="1080" fill="url(#room_grad)" stroke="#1A202C" stroke-width="5" filter="url(#drop_shadow)"/>
<rect x="72" y="58" width="720" height="1080" fill="none" stroke="#1A202C" stroke-width="1.2" opacity="0.25"/>
<text x="506.0" y="22" text-anchor="middle" font-size="16" font-weight="bold" fill="#2C5282">空间平面布点 — 综合执法功能区</text>
<text x="506.0" y="40" text-anchor="middle" font-size="10" fill="#718096">空间尺寸：18m（长）× 12m（宽）× 3.6m（层高）</text>
<line x1="72" y1="44" x2="792" y2="44" stroke="#A0AEC0" stroke-width="1" stroke-dasharray="3,2"/>
<line x1="72" y1="40" x2="72" y2="48" stroke="#A0AEC0" stroke-width="1.2"/>
<line x1="792" y1="40" x2="792" y2="48" stroke="#A0AEC0" stroke-width="1.2"/>
<rect x="418.9" y="34.5" width="26.2" height="19.0" rx="3" fill="#FFFFFF" stroke="#CBD5E0" stroke-width="0.8" opacity="0.92"/>
<text x="432.0" y="47.3" text-anchor="middle" font-size="9" fill="#718096">12m</text>
<line x1="54" y1="58" x2="54" y2="1138" stroke="#A0AEC0" stroke-width="1" stroke-dasharray="3,2"/>
<line x1="50" y1="58" x2="58" y2="58" stroke="#A0AEC0" stroke-width="1.2"/>
<line x1="50" y1="1138" x2="58" y2="1138" stroke="#A0AEC0" stroke-width="1.2"/>
<text x="48.0" y="598.0" text-anchor="middle" font-size="9" fill="#718096" transform="rotate(-90,48.0,598.0)">18m</text>
<polygon points="768,70 761,89 768,85 775,89" fill="#2C5282" opacity="0.85"/>
<text x="768" y="104" text-anchor="middle" font-size="9" font-weight="bold" fill="#2C5282">N</text>
<rect x="78.0" y="1151" width="60.0" height="10" fill="#4A5568"/>
<rect x="138.0" y="1151" width="60.0" height="10" fill="white"/>
<rect x="198.0" y="1151" width="60.0" height="10" fill="#4A5568"/>
<rect x="258.0" y="1151" width="60.0" height="10" fill="white"/>
<rect x="318.0" y="1151" width="60.0" height="10" fill="#4A5568"/>
<rect x="78" y="1151" width="300" height="10" rx="2" fill="none" stroke="#A0AEC0" stroke-width="1"/>
<text x="78" y="1172" font-size="8" fill="#A0AEC0">0</text>
<text x="378.0" y="1172" text-anchor="end" font-size="8" fill="#A0AEC0">5m</text>
</g>
<g id="fixed_element_layer">
<rect x="312.0" y="538.0" width="240.0" height="120.0" rx="3" fill="url(#fixed_grad)" stroke="#2B6CB0" stroke-width="1.5" filter="url(#soft_shadow)"/>
<rect x="405.6" y="588.5" width="52.7" height="19.0" rx="3" fill="#FFFFFF" stroke="#CBD5E0" stroke-width="0.8" opacity="0.92"/>
<text x="432.0" y="601.3" text-anchor="middle" font-size="9" fill="#2B6CB0">中央工作岛</text>
<rect x="84.0" y="580.0" width="180.0" height="36.0" rx="3" fill="url(#fixed_grad)" stroke="#2B6CB0" stroke-width="1.5" filter="url(#soft_shadow)"/>
<rect x="149.2" y="588.5" width="49.6" height="19.0" rx="3" fill="#FFFFFF" stroke="#CBD5E0" stroke-width="0.8" opacity="0.92"/>
<text x="174.0" y="601.3" text-anchor="middle" font-size="9" fill="#2B6CB0">资料柜组A</text>
<rect x="600.0" y="580.0" width="180.0" height="36.0" rx="3" fill="url(#fixed_grad)" stroke="#2B6CB0" stroke-width="1.5" filter="url(#soft_shadow)"/>
<rect x="665.2" y="588.5" width="49.6" height="19.0" rx="3" fill="#FFFFFF" stroke="#CBD5E0" stroke-width="0.8" opacity="0.92"/>
<text x="690.0" y="601.3" text-anchor="middle" font-size="9" fill="#2B6CB0">资料柜组B</text>
<rect x="426.0" y="418.0" width="12.0" height="360.0" rx="3" fill="url(#fixed_grad)" stroke="#2B6CB0" stroke-width="1.5" filter="url(#soft_shadow)"/>
<rect x="411.5" y="588.5" width="41.0" height="19.0" rx="3" fill="#FFFFFF" stroke="#CBD5E0" stroke-width="0.8" opacity="0.92"/>
<text x="432.0" y="601.3" text-anchor="middle" font-size="9" fill="#2B6CB0">隔断墙1</text>
<rect x="372.0" y="88.0" width="120.0" height="60.0" rx="3" fill="url(#fixed_grad)" stroke="#2B6CB0" stroke-width="1.5" filter="url(#soft_shadow)"/>
<rect x="405.6" y="108.5" width="52.7" height="19.0" rx="3" fill="#FFFFFF" stroke="#CBD5E0" stroke-width="0.8" opacity="0.92"/>
<text x="432.0" y="121.3" text-anchor="middle" font-size="9" fill="#2B6CB0">设备机柜区</text>
</g>
<g id="device_layer">
<g id="device_fans_0" clip-path="url(#room_clip)">
<path d="M 90.0,76.0 L 58.3,181.3 A 110.0,110.0 0 0,1 199.2,89.0 Z" fill="url(#fan_grad_0)" stroke="#C53030" stroke-width="0.6" stroke-opacity="0.25"/>
<path d="M 522.0,76.0 L 426.9,131.4 A 110.0,110.0 0 0,1 593.0,160.0 Z" fill="url(#fan_grad_0)" stroke="#C53030" stroke-width="0.6" stroke-opacity="0.25"/>
<path d="M 774.0,256.0 L 664.4,246.4 A 110.0,110.0 0 0,1 783.6,365.6 Z" fill="url(#fan_grad_0)" stroke="#C53030" stroke-width="0.6" stroke-opacity="0.25"/>
<path d="M 774.0,688.0 L 727.1,588.5 A 110.0,110.0 0 0,1 684.2,751.5 Z" fill="url(#fan_grad_0)" stroke="#C53030" stroke-width="0.6" stroke-opacity="0.25"/>
<path d="M 774.0,1120.0 L 805.7,1014.7 A 110.0,110.0 0 0,1 664.8,1107.0 Z" fill="url(#fan_grad_0)" stroke="#C53030" stroke-width="0.6" stroke-opacity="0.25"/>
<path d="M 342.0,1120.0 L 437.1,1064.6 A 110.0,110.0 0 0,1 271.0,1036.0 Z" fill="url(#fan_grad_0)" stroke="#C53030" stroke-width="0.6" stroke-opacity="0.25"/>
<path d="M 90.0,940.0 L 199.6,949.6 A 110.0,110.0 0 0,1 80.4,830.4 Z" fill="url(#fan_grad_0)" stroke="#C53030" stroke-width="0.6" stroke-opacity="0.25"/>
<path d="M 90.0,508.0 L 136.9,607.5 A 110.0,110.0 0 0,1 179.8,444.5 Z" fill="url(#fan_grad_0)" stroke="#C53030" stroke-width="0.6" stroke-opacity="0.25"/>
</g>
<g id="device_arrows_0">
<line x1="90.0" y1="76.0" x2="108.6" y2="104.4" stroke="#C53030" stroke-width="1.8" opacity="0.85"/>
<polygon points="108.6,104.4 108.2,96.5 101.5,100.8" fill="#C53030" opacity="0.85"/>
<line x1="522.0" y1="76.0" x2="516.2" y2="109.5" stroke="#C53030" stroke-width="1.8" opacity="0.85"/>
<polygon points="516.2,109.5 521.3,103.4 513.5,102.0" fill="#C53030" opacity="0.85"/>
<line x1="774.0" y1="256.0" x2="750.0" y2="280.0" stroke="#C53030" stroke-width="1.8" opacity="0.85"/>
<polygon points="750.0,280.0 757.7,278.0 752.0,272.3" fill="#C53030" opacity="0.85"/>
<line x1="774.0" y1="688.0" x2="741.1" y2="679.3" stroke="#C53030" stroke-width="1.8" opacity="0.85"/>
<polygon points="741.1,679.3 746.8,685.0 748.8,677.2" fill="#C53030" opacity="0.85"/>
<line x1="774.0" y1="1120.0" x2="755.4" y2="1091.6" stroke="#C53030" stroke-width="1.8" opacity="0.85"/>
<polygon points="755.4,1091.6 755.8,1099.5 762.5,1095.2" fill="#C53030" opacity="0.85"/>
<line x1="342.0" y1="1120.0" x2="347.8" y2="1086.5" stroke="#C53030" stroke-width="1.8" opacity="0.85"/>
<polygon points="347.8,1086.5 342.7,1092.6 350.5,1094.0" fill="#C53030" opacity="0.85"/>
<line x1="90.0" y1="940.0" x2="114.0" y2="916.0" stroke="#C53030" stroke-width="1.8" opacity="0.85"/>
<polygon points="114.0,916.0 106.3,918.0 112.0,923.7" fill="#C53030" opacity="0.85"/>
<line x1="90.0" y1="508.0" x2="122.9" y2="516.7" stroke="#C53030" stroke-width="1.8" opacity="0.85"/>
<polygon points="122.9,516.7 117.2,511.0 115.2,518.8" fill="#C53030" opacity="0.85"/>
</g>
<g id="device_icons_0">
<circle cx="90.0" cy="76.0" r="17" fill="#C53030" opacity="0.12"/>
<g style="color:#C53030"><use href="#sym_dome" x="78.0" y="64.0" width="24" height="24"/></g>
<circle cx="522.0" cy="76.0" r="17" fill="#C53030" opacity="0.12"/>
<g style="color:#C53030"><use href="#sym_dome" x="510.0" y="64.0" width="24" height="24"/></g>
<circle cx="774.0" cy="256.0" r="17" fill="#C53030" opacity="0.12"/>
<g style="color:#C53030"><use href="#sym_dome" x="762.0" y="244.0" width="24" height="24"/></g>
<circle cx="774.0" cy="688.0" r="17" fill="#C53030" opacity="0.12"/>
<g style="color:#C53030"><use href="#sym_dome" x="762.0" y="676.0" width="24" height="24"/></g>
<circle cx="774.0" cy="1120.0" r="17" fill="#C53030" opacity="0.12"/>
<g style="color:#C53030"><use href="#sym_dome" x="762.0" y="1108.0" width="24" height="24"/></g>
<circle cx="342.0" cy="1120.0" r="17" fill="#C53030" opacity="0.12"/>
<g style="color:#C53030"><use href="#sym_dome" x="330.0" y="1108.0" width="24" height="24"/></g>
<circle cx="90.0" cy="940.0" r="17" fill="#C53030" opacity="0.12"/>
<g style="color:#C53030"><use href="#sym_dome" x="78.0" y="928.0" width="24" height="24"/></g>
<circle cx="90.0" cy="508.0" r="17" fill="#C53030" opacity="0.12"/>
<g style="color:#C53030"><use href="#sym_dome" x="78.0" y="496.0" width="24" height="24"/></g>
</g>
<g id="device_labels_0">
<rect x="70.6" y="42.0" width="38.8" height="18.0" rx="3" fill="#FFFFFF" stroke="#CBD5E0" stroke-width="0.8" opacity="0.92"/>
<text x="90.0" y="54.0" text-anchor="middle" font-size="8" fill="#C53030">H=3.2m</text>
<rect x="502.6" y="42.0" width="38.8" height="18.0" rx="3" fill="#FFFFFF" stroke="#CBD5E0" stroke-width="0.8" opacity="0.92"/>
<text x="522.0" y="54.0" text-anchor="middle" font-size="8" fill="#C53030">H=3.2m</text>
<rect x="754.6" y="222.0" width="38.8" height="18.0" rx="3" fill="#FFFFFF" stroke="#CBD5E0" stroke-width="0.8" opacity="0.92"/>
<text x="774.0" y="234.0" text-anchor="middle" font-size="8" fill="#C53030">H=3.2m</text>
<rect x="754.6" y="654.0" width="38.8" height="18.0" rx="3" fill="#FFFFFF" stroke="#CBD5E0" stroke-width="0.8" opacity="0.92"/>
<text x="774.0" y="666.0" text-anchor="middle" font-size="8" fill="#C53030">H=3.2m</text>
<rect x="754.6" y="1086.0" width="38.8" height="18.0" rx="3" fill="#FFFFFF" stroke="#CBD5E0" stroke-width="0.8" opacity="0.92"/>
<text x="774.0" y="1098.0" text-anchor="middle" font-size="8" fill="#C53030">H=3.2m</text>
<rect x="322.6" y="1086.0" width="38.8" height="18.0" rx="3" fill="#FFFFFF" stroke="#CBD5E0" stroke-width="0.8" opacity="0.92"/>
<text x="342.0" y="1098.0" text-anchor="middle" font-size="8" fill="#C53030">H=3.2m</text>
<rect x="70.6" y="906.0" width="38.8" height="18.0" rx="3" fill="#FFFFFF" stroke="#CBD5E0" stroke-width="0.8" opacity="0.92"/>
<text x="90.0" y="918.0" text-anchor="middle" font-size="8" fill="#C53030">H=3.2m</text>
<rect x="70.6" y="474.0" width="38.8" height="18.0" rx="3" fill="#FFFFFF" stroke="#CBD5E0" stroke-width="0.8" opacity="0.92"/>
<text x="90.0" y="486.0" text-anchor="middle" font-size="8" fill="#C53030">H=3.2m</text>
</g>
<g id="device_fans_1" clip-path="url(#room_clip)">
<path d="M 432.0,382.0 L 347.7,452.7 A 110.0,110.0 0 0,1 516.3,452.7 Z" fill="url(#fan_grad_1)" stroke="#2B6CB0" stroke-width="0.6" stroke-opacity="0.25"/>
<path d="M 432.0,814.0 L 516.3,743.3 A 110.0,110.0 0 0,1 347.7,743.3 Z" fill="url(#fan_grad_1)" stroke="#2B6CB0" stroke-width="0.6" stroke-opacity="0.25"/>
</g>
<g id="device_arrows_1">
<line x1="432.0" y1="382.0" x2="432.0" y2="416.0" stroke="#2B6CB0" stroke-width="1.8" opacity="0.85"/>
<polygon points="432.0,416.0 436.0,409.1 428.0,409.1" fill="#2B6CB0" opacity="0.85"/>
<line x1="432.0" y1="814.0" x2="432.0" y2="780.0" stroke="#2B6CB0" stroke-width="1.8" opacity="0.85"/>
<polygon points="432.0,780.0 428.0,786.9 436.0,786.9" fill="#2B6CB0" opacity="0.85"/>
</g>
<g id="device_icons_1">
<circle cx="432.0" cy="382.0" r="17" fill="#2B6CB0" opacity="0.12"/>
<g style="color:#2B6CB0"><use href="#sym_dome" x="420.0" y="370.0" width="24" height="24"/></g>
<circle cx="432.0" cy="814.0" r="17" fill="#2B6CB0" opacity="0.12"/>
<g style="color:#2B6CB0"><use href="#sym_dome" x="420.0" y="802.0" width="24" height="24"/></g>
</g>
<g id="device_labels_1">
<rect x="412.6" y="348.0" width="38.8" height="18.0" rx="3" fill="#FFFFFF" stroke="#CBD5E0" stroke-width="0.8" opacity="0.92"/>
<text x="432.0" y="360.0" text-anchor="middle" font-size="8" fill="#2B6CB0">H=3.4m</text>
<rect x="412.6" y="780.0" width="38.8" height="18.0" rx="3" fill="#FFFFFF" stroke="#CBD5E0" stroke-width="0.8" opacity="0.92"/>
<text x="432.0" y="792.0" text-anchor="middle" font-size="8" fill="#2B6CB0">H=3.4m</text>
</g>
<g id="device_fans_2" clip-path="url(#room_clip)">
<path d="M 252.0,328.0 L 221.1,433.6 A 110.0,110.0 0 0,1 361.3,340.1 Z" fill="url(#fan_grad_2)" stroke="#276749" stroke-width="0.6" stroke-opacity="0.25"/>
<path d="M 612.0,328.0 L 502.7,340.1 A 110.0,110.0 0 0,1 642.9,433.6 Z" fill="url(#fan_grad_2)" stroke="#276749" stroke-width="0.6" stroke-opacity="0.25"/>
<path d="M 252.0,868.0 L 361.3,855.9 A 110.0,110.0 0 0,1 221.1,762.4 Z" fill="url(#fan_grad_2)" stroke="#276749" stroke-width="0.6" stroke-opacity="0.25"/>
<path d="M 612.0,868.0 L 642.9,762.4 A 110.0,110.0 0 0,1 502.7,855.9 Z" fill="url(#fan_grad_2)" stroke="#276749" stroke-width="0.6" stroke-opacity="0.25"/>
</g>
<g id="device_arrows_2">
<line x1="252.0" y1="328.0" x2="270.9" y2="356.3" stroke="#276749" stroke-width="1.8" opacity="0.85"/>
<polygon points="270.9,356.3 270.3,348.3 263.7,352.7" fill="#276749" opacity="0.85"/>
<line x1="612.0" y1="328.0" x2="593.1" y2="356.3" stroke="#276749" stroke-width="1.8" opacity="0.85"/>
<polygon points="593.1,356.3 600.3,352.7 593.7,348.3" fill="#276749" opacity="0.85"/>
<line x1="252.0" y1="868.0" x2="270.9" y2="839.7" stroke="#276749" stroke-width="1.8" opacity="0.85"/>
<polygon points="270.9,839.7 263.7,843.3 270.3,847.7" fill="#276749" opacity="0.85"/>
<line x1="612.0" y1="868.0" x2="593.1" y2="839.7" stroke="#276749" stroke-width="1.8" opacity="0.85"/>
<polygon points="593.1,839.7 593.7,847.7 600.3,843.3" fill="#276749" opacity="0.85"/>
</g>
<g id="device_icons_2">
<circle cx="252.0" cy="328.0" r="17" fill="#276749" opacity="0.12"/>
<g style="color:#276749"><use href="#sym_dome" x="240.0" y="316.0" width="24" height="24"/></g>
<circle cx="612.0" cy="328.0" r="17" fill="#276749" opacity="0.12"/>
<g style="color:#276749"><use href="#sym_dome" x="600.0" y="316.0" width="24" height="24"/></g>
<circle cx="252.0" cy="868.0" r="17" fill="#276749" opacity="0.12"/>
<g style="color:#276749"><use href="#sym_dome" x="240.0" y="856.0" width="24" height="24"/></g>
<circle cx="612.0" cy="868.0" r="17" fill="#276749" opacity="0.12"/>
<g style="color:#276749"><use href="#sym_dome" x="600.0" y="856.0" width="24" height="24"/></g>
</g>
<g id="device_labels_2">
<rect x="232.6" y="294.0" width="38.8" height="18.0" rx="3" fill="#FFFFFF" stroke="#CBD5E0" stroke-width="0.8" opacity="0.92"/>
<text x="252.0" y="306.0" text-anchor="middle" font-size="8" fill="#276749">H=3.2m</text>
<rect x="592.6" y="294.0" width="38.8" height="18.0" rx="3" fill="#FFFFFF" stroke="#CBD5E0" stroke-width="0.8" opacity="0.92"/>
<text x="612.0" y="306.0" text-anchor="middle" font-size="8" fill="#276749">H=3.2m</text>
<rect x="232.6" y="834.0" width="38.8" height="18.0" rx="3" fill="#FFFFFF" stroke="#CBD5E0" stroke-width="0.8" opacity="0.92"/>
<text x="252.0" y="846.0" text-anchor="middle" font-size="8" fill="#276749">H=3.2m</text>
<rect x="592.6" y="834.0" width="38.8" height="18.0" rx="3" fill="#FFFFFF" stroke="#CBD5E0" stroke-width="0.8" opacity="0.92"/>
<text x="612.0" y="846.0" text-anchor="middle" font-size="8" fill="#276749">H=3.2m</text>
</g>
<g id="device_fans_3" clip-path="url(#room_clip)">
<path d="M 252.0,58.0 L 194.4,151.7 A 110.0,110.0 0 0,1 354.3,98.4 Z" fill="url(#fan_grad_3)" stroke="#6B46C1" stroke-width="0.6" stroke-opacity="0.25"/>
<path d="M 432.0,58.0 L 347.7,128.7 A 110.0,110.0 0 0,1 516.3,128.7 Z" fill="url(#fan_grad_3)" stroke="#6B46C1" stroke-width="0.6" stroke-opacity="0.25"/>
<path d="M 612.0,58.0 L 509.7,98.4 A 110.0,110.0 0 0,1 669.6,151.7 Z" fill="url(#fan_grad_3)" stroke="#6B46C1" stroke-width="0.6" stroke-opacity="0.25"/>
</g>
<g id="device_arrows_3">
<line x1="252.0" y1="58.0" x2="262.8" y2="90.3" stroke="#6B46C1" stroke-width="1.8" opacity="0.85"/>
<polygon points="262.8,90.3 264.4,82.4 256.8,84.9" fill="#6B46C1" opacity="0.85"/>
<line x1="432.0" y1="58.0" x2="432.0" y2="92.0" stroke="#6B46C1" stroke-width="1.8" opacity="0.85"/>
<polygon points="432.0,92.0 436.0,85.1 428.0,85.1" fill="#6B46C1" opacity="0.85"/>
<line x1="612.0" y1="58.0" x2="601.2" y2="90.3" stroke="#6B46C1" stroke-width="1.8" opacity="0.85"/>
<polygon points="601.2,90.3 607.2,84.9 599.6,82.4" fill="#6B46C1" opacity="0.85"/>
</g>
<g id="device_icons_3">
<circle cx="252.0" cy="58.0" r="17" fill="#6B46C1" opacity="0.12"/>
<g style="color:#6B46C1"><use href="#sym_dome" x="240.0" y="46.0" width="24" height="24"/></g>
<circle cx="432.0" cy="58.0" r="17" fill="#6B46C1" opacity="0.12"/>
<g style="color:#6B46C1"><use href="#sym_dome" x="420.0" y="46.0" width="24" height="24"/></g>
<circle cx="612.0" cy="58.0" r="17" fill="#6B46C1" opacity="0.12"/>
<g style="color:#6B46C1"><use href="#sym_dome" x="600.0" y="46.0" width="24" height="24"/></g>
</g>
<g id="device_labels_3">
<rect x="232.6" y="24.0" width="38.8" height="18.0" rx="3" fill="#FFFFFF" stroke="#CBD5E0" stroke-width="0.8" opacity="0.92"/>
<text x="252.0" y="36.0" text-anchor="middle" font-size="8" fill="#6B46C1">H=1.2m</text>
<rect x="412.6" y="24.0" width="38.8" height="18.0" rx="3" fill="#FFFFFF" stroke="#CBD5E0" stroke-width="0.8" opacity="0.92"/>
<text x="432.0" y="36.0" text-anchor="middle" font-size="8" fill="#6B46C1">H=1.2m</text>
<rect x="592.6" y="24.0" width="38.8" height="18.0" rx="3" fill="#FFFFFF" stroke="#CBD5E0" stroke-width="0.8" opacity="0.92"/>
<text x="612.0" y="36.0" text-anchor="middle" font-size="8" fill="#6B46C1">H=1.2m</text>
</g>
<g id="device_fans_4" clip-path="url(#room_clip)">
<path d="M 312.0,58.0 L 245.1,145.3 A 110.0,110.0 0 0,1 409.6,108.7 Z" fill="url(#fan_grad_4)" stroke="#C05621" stroke-width="0.6" stroke-opacity="0.25"/>
<path d="M 552.0,58.0 L 454.4,108.7 A 110.0,110.0 0 0,1 618.9,145.3 Z" fill="url(#fan_grad_4)" stroke="#C05621" stroke-width="0.6" stroke-opacity="0.25"/>
</g>
<g id="device_arrows_4">
<line x1="312.0" y1="58.0" x2="319.4" y2="91.2" stroke="#C05621" stroke-width="1.8" opacity="0.85"/>
<polygon points="319.4,91.2 321.8,83.6 314.0,85.3" fill="#C05621" opacity="0.85"/>
<line x1="552.0" y1="58.0" x2="544.6" y2="91.2" stroke="#C05621" stroke-width="1.8" opacity="0.85"/>
<polygon points="544.6,91.2 550.0,85.3 542.2,83.6" fill="#C05621" opacity="0.85"/>
</g>
<g id="device_icons_4">
<circle cx="312.0" cy="58.0" r="17" fill="#C05621" opacity="0.12"/>
<g style="color:#C05621"><use href="#sym_dome" x="300.0" y="46.0" width="24" height="24"/></g>
<circle cx="552.0" cy="58.0" r="17" fill="#C05621" opacity="0.12"/>
<g style="color:#C05621"><use href="#sym_dome" x="540.0" y="46.0" width="24" height="24"/></g>
</g>
<g id="device_labels_4">
<rect x="292.6" y="24.0" width="38.8" height="18.0" rx="3" fill="#FFFFFF" stroke="#CBD5E0" stroke-width="0.8" opacity="0.92"/>
<text x="312.0" y="36.0" text-anchor="middle" font-size="8" fill="#C05621">H=1.3m</text>
<rect x="532.6" y="24.0" width="38.8" height="18.0" rx="3" fill="#FFFFFF" stroke="#CBD5E0" stroke-width="0.8" opacity="0.92"/>
<text x="552.0" y="36.0" text-anchor="middle" font-size="8" fill="#C05621">H=1.3m</text>
</g>
</g>
<g id="annotation_layer">
</g>
<g id="legend_layer">
<rect x="810" y="58" width="194" height="412" rx="6" fill="white" stroke="#E2E8F0" stroke-width="1.2" filter="url(#soft_shadow)"/>
<text x="820" y="78" font-size="11" font-weight="bold" fill="#2C5282">图 例</text>
<line x1="818" y1="84" x2="996" y2="84" stroke="#E2E8F0" stroke-width="1"/>
<circle cx="828" cy="106" r="14" fill="#C53030" opacity="0.12"/>
<g style="color:#C53030"><use href="#sym_dome" x="816" y="94" width="24" height="24"/></g>
<text x="844" y="103" font-size="10" font-weight="bold" fill="#2D3748">摄像机</text>
<text x="844" y="115" font-size="9" fill="#718096">×8  墙角高位</text>
<text x="844" y="127" font-size="8" fill="#A0AEC0">[perimeter]</text>
<circle cx="828" cy="158" r="14" fill="#2B6CB0" opacity="0.12"/>
<g style="color:#2B6CB0"><use href="#sym_dome" x="816" y="146" width="24" height="24"/></g>
<text x="844" y="155" font-size="10" font-weight="bold" fill="#2D3748">摄像机</text>
<text x="844" y="167" font-size="9" fill="#718096">×2  顶部吸顶</text>
<text x="844" y="179" font-size="8" fill="#A0AEC0">[radial]</text>
<circle cx="828" cy="210" r="14" fill="#276749" opacity="0.12"/>
<g style="color:#276749"><use href="#sym_dome" x="816" y="198" width="24" height="24"/></g>
<text x="844" y="207" font-size="10" font-weight="bold" fill="#2D3748">拾音器</text>
<text x="844" y="219" font-size="9" fill="#718096">×4  顶面均布</text>
<text x="844" y="231" font-size="8" fill="#A0AEC0">[uniform]</text>
<circle cx="828" cy="262" r="14" fill="#6B46C1" opacity="0.12"/>
<g style="color:#6B46C1"><use href="#sym_dome" x="816" y="250" width="24" height="24"/></g>
<text x="844" y="259" font-size="10" font-weight="bold" fill="#2D3748">报警按钮</text>
<text x="844" y="271" font-size="9" fill="#718096">×3  固定设施侧装</text>
<text x="844" y="283" font-size="8" fill="#A0AEC0">[single_side]</text>
<circle cx="828" cy="314" r="14" fill="#C05621" opacity="0.12"/>
<g style="color:#C05621"><use href="#sym_dome" x="816" y="302" width="24" height="24"/></g>
<text x="844" y="311" font-size="10" font-weight="bold" fill="#2D3748">门禁读卡器</text>
<text x="844" y="323" font-size="9" fill="#718096">×2  门侧壁装</text>
<text x="844" y="335" font-size="8" fill="#A0AEC0">[single_side]</text>
<line x1="818" y1="354" x2="996" y2="354" stroke="#E2E8F0" stroke-width="1"/>
<text x="820" y="370" font-size="9" font-weight="bold" fill="#718096">建议</text>
<text x="822" y="386" font-size="8" fill="#A0AEC0">&#8226; 周界摄像机可增至10台</text>
<text x="822" y="404" font-size="8" fill="#A0AEC0">&#8226; 拾音器建议分区编号</text>
<text x="822" y="422" font-size="8" fill="#A0AEC0">&#8226; 门禁数量核对出入口</text>
<text x="820" y="442" font-size="8" fill="#2C5282">覆盖：通过</text>
<text x="820" y="455" font-size="8" fill="#A0AEC0">冲突：无</text>
</g>
</svg>